<svg xmlns="http://www.w3.org/2000/svg" xmlns:xlink="http://www.w3.org/1999/xlink" height="24" width="24"><defs><linearGradient id="a"><stop offset="0" stop-opacity="0"/><stop offset=".07" stop-color="#010000"/><stop offset=".5"/><stop offset="1" stop-opacity="0"/></linearGradient><linearGradient xlink:href="#a" id="b" x1="11" y1="11" x2="19" y2="19" gradientUnits="userSpaceOnUse" spreadMethod="pad" gradientTransform="matrix(.825 0 0 .825 2.1 2.1)"/><filter id="c" color-interpolation-filters="sRGB"><feFlood flood-opacity=".5" flood-color="#000" result="flood"/><feComposite in="flood" in2="SourceGraphic" operator="in" result="composite1"/><feGaussianBlur in="composite1" stdDeviation=".5" result="blur"/><feOffset result="offset"/><feComposite in="SourceGraphic" in2="offset" result="composite2"/></filter></defs><path fill="#1565c0" fill-rule="evenodd" d="M0 0h24v23.99H0z"/><path d="M15.08 7.5a.82.82 0 00-.58.25l-7 7v1.75l5.32 5.4h9.08v-7.92l-5.65-5.65-.58-.58a.82.82 0 00-.59-.24z" opacity=".2" fill="url(#b)" fill-rule="evenodd"/><path d="M17.16 8.96a1 1 0 000-1.4l-.71-.72a1 1 0 00-1.41 0L13.97 7.9l2.13 2.13zm-2.12 2.13L12.9 8.96l-6.36 6.37v2.12h2.12z" transform="matrix(.825 0 0 .825 2.1 2.1)" filter="url(#c)" fill-rule="evenodd" fill="#f5f5f5"/></svg>